<svg id="Layer_1_1_" enable-background="new 0 0 64 64" height="512" viewBox="0 0 64 64" width="512" xmlns="http://www.w3.org/2000/svg"><circle cx="59" cy="43" fill="#f6db40" r="2"/><circle cx="59" cy="34" fill="#f6db40" r="2"/><circle cx="5" cy="43" fill="#f6db40" r="2"/><circle cx="5" cy="34" fill="#f6db40" r="2"/><path d="m41 49v8l-9 4v-8z" fill="#8360f4"/><path d="m32 53v8l-9-4v-8z" fill="#8360f4"/><path d="m32 45 9 4-9 4-9-4z" fill="#db535b"/><path d="m22.17 38c-2.09 0-3.95-1.53-4.15-3.61-.01-.13-.02-.26-.02-.39 0-1.1.45-2.1 1.17-2.83.73-.72 1.73-1.17 2.83-1.17.05 0 .1.01.15.01-.29-1.09-.29-2.3 1.31-3.87.71-.71 1.64-1.16 2.64-1.14.79.02 1.53.27 2.14.69.54-1.56 2.01-2.69 3.76-2.69s3.22 1.13 3.76 2.69c.61-.42 1.35-.67 2.14-.69 1-.02 1.93.43 2.64 1.14 1.6 1.57 1.6 2.78 1.31 3.87.05 0 .1-.01.15-.01 1.1 0 2.1.45 2.83 1.17.72.73 1.17 1.73 1.17 2.83 0 .13-.01.26-.02.39-.2 2.08-2.06 3.61-4.15 3.61h-.83v6c-2.21 0-4-1.79-4-4v-2z" fill="#f6db40"/><path d="m61 9h-6v-6z" fill="#8360f4"/><path d="m40 9h-6v-6z" fill="#8360f4"/><path d="m19 9h-6v-6z" fill="#8360f4"/><path d="m61 9v10h-16v-16h10v6z" fill="#6599ed"/><path d="m40 9v10h-16v-16h10v6z" fill="#6599ed"/><path d="m19 9v10h-16v-16h10v6z" fill="#6599ed"/><g fill="#1a1a1a"><path d="m15 37c-.265 0-.52.105-.707.293l-4.707 4.707h-1.77c-.414-1.161-1.514-2-2.816-2-1.654 0-3 1.346-3 3s1.346 3 3 3c1.302 0 2.402-.839 2.816-2h2.184c.265 0 .52-.105.707-.293l4.707-4.707h15.586v5.35l-8.406 3.736c-.361.161-.594.519-.594.914v8c0 .395.233.753.594.914l9 4c.129.057.268.086.406.086s.277-.029.406-.086l9-4c.361-.161.594-.519.594-.914v-8c0-.395-.233-.753-.594-.914l-8.406-3.736v-5.35h3v1c0 2.757 2.243 5 5 5 .552 0 1-.448 1-1v-5h6.586l4.707 4.707c.188.188.442.293.707.293h2.184c.414 1.161 1.514 2 2.816 2 1.654 0 3-1.346 3-3s-1.346-3-3-3c-1.302 0-2.402.839-2.816 2h-1.77l-4.707-4.707c-.187-.188-.442-.293-.707-.293h-3.042c.456-.58.764-1.263.919-2h9.308c.414 1.161 1.514 2 2.816 2 1.654 0 3-1.346 3-3s-1.346-3-3-3c-1.302 0-2.402.839-2.816 2h-9.315c-.128-.621-.365-1.21-.715-1.741l7.552-7.552c.188-.187.293-.442.293-.707v-3h7c.552 0 1-.448 1-1v-10c0-.265-.105-.52-.293-.707l-6-6c-.187-.188-.442-.293-.707-.293h-10c-.552 0-1 .448-1 1v16c0 .552.448 1 1 1h7v2.586l-7.255 7.255c-.532-.351-1.12-.611-1.745-.739.026-1.035-.332-2.273-1.753-3.678-.958-.946-2.166-1.466-3.37-1.422-.575.014-1.138.126-1.667.329-.724-1.146-1.887-1.944-3.21-2.218v-2.113h7c.552 0 1-.448 1-1v-10c0-.265-.105-.52-.293-.707l-6-6c-.187-.188-.442-.293-.707-.293h-10c-.552 0-1 .448-1 1v16c0 .552.448 1 1 1h7v2.112c-1.323.274-2.486 1.073-3.21 2.218-.529-.203-1.092-.315-1.667-.329-1.203-.028-2.412.476-3.369 1.422-1.422 1.405-1.78 2.643-1.754 3.678-.626.128-1.213.388-1.745.739l-7.255-7.254v-2.586h7c.552 0 1-.448 1-1v-10c0-.265-.105-.52-.293-.707l-6-6c-.187-.188-.442-.293-.707-.293h-10c-.552 0-1 .448-1 1v16c0 .552.448 1 1 1h7v3c0 .265.105.52.293.707l7.552 7.552c-.35.531-.587 1.12-.715 1.741h-9.314c-.414-1.161-1.514-2-2.816-2-1.654 0-3 1.346-3 3s1.346 3 3 3c1.302 0 2.402-.839 2.816-2h9.308c.155.736.463 1.42.919 2zm-10 7c-.551 0-1-.449-1-1s.449-1 1-1 1 .449 1 1-.449 1-1 1zm19 6.539 7 3.111v5.812l-7-3.111zm9 8.922v-5.811l7-3.111v5.812zm5.538-10.461-6.538 2.906-6.538-2.906 5.538-2.461v2.461h2v-2.461zm20.462-7c.551 0 1 .449 1 1s-.449 1-1 1-1-.449-1-1 .449-1 1-1zm-3-36.586 2.586 2.586h-2.586zm-10-1.414h8v5c0 .552.448 1 1 1h5v8h-14zm-11 1.414 2.586 2.586h-2.586zm-10-1.414h8v5c0 .552.448 1 1 1h5v8h-14zm-11 1.414 2.586 2.586h-2.586zm-10-1.414h8v5c0 .552.448 1 1 1h5v8h-14zm55 29c.551 0 1 .449 1 1s-.449 1-1 1-1-.449-1-1 .449-1 1-1zm-37.062-2.002c.034.005.134.015.168.016.311.01.621-.125.819-.373.198-.247.268-.574.188-.88-.199-.755-.281-1.602 1.046-2.914.568-.562 1.229-.854 1.915-.846.575.014 1.13.192 1.604.513.258.174.582.221.875.121.295-.097.527-.326.63-.619.422-1.206 1.554-2.016 2.817-2.016s2.395.81 2.817 2.016c.103.293.335.522.63.619.295.1.618.053.875-.121.475-.321 1.03-.499 1.604-.513.667.007 1.347.285 1.916.846 1.327 1.312 1.245 2.159 1.046 2.914-.081.307-.011.633.188.88.199.248.502.382.819.373.056-.002.111-.009.105-.014.843 0 1.652.358 2.22.982.576.633.848 1.456.766 2.315-.145 1.516-1.532 2.703-3.158 2.703h-.828c-.552 0-1 .448-1 1v4.829c-1.164-.413-2-1.525-2-2.829v-2c0-.552-.448-1-1-1v-1.586l1.707-1.707c.188-.187.293-.442.293-.707v-3h-2v2.586l-1.707 1.707c-.187.187-.293.442-.293.707v2h-2v-9h-2v9h-2v-2c0-.265-.105-.52-.293-.707l-1.707-1.707v-2.586h-2v3c0 .265.105.52.293.707l1.707 1.707v1.586h-4.828c-1.626 0-3.013-1.187-3.158-2.702-.082-.86.19-1.683.766-2.316.568-.624 1.377-.982 2.158-.984zm-16.938 4.002c-.551 0-1-.449-1-1s.449-1 1-1 1 .449 1 1-.449 1-1 1z"/><path d="m45 52h2v2h-2z"/><path d="m49 52h2v2h-2z"/><path d="m49 56h2v2h-2z"/><path d="m49 48h2v2h-2z"/><path d="m17 52h2v2h-2z"/><path d="m13 52h2v2h-2z"/><path d="m13 56h2v2h-2z"/><path d="m13 48h2v2h-2z"/></g></svg>