<svg height="504pt" viewBox="0 -15 504 503" width="504pt" xmlns="http://www.w3.org/2000/svg"><path d="m489.074219 469.90625h-474.148438c-6.035156 0-10.925781-4.890625-10.925781-10.925781v-115.804688c0-6.035156 4.890625-10.925781 10.925781-10.925781h474.148438c6.035156 0 10.929687 4.890625 10.929687 10.925781v115.804688c-.003906 6.039062-4.894531 10.925781-10.929687 10.925781zm0 0" fill="#f4efed"/><path d="m489.074219 142.15625h-474.148438c-6.035156 0-10.925781-4.890625-10.925781-10.925781v-115.804688c0-6.035156 4.890625-10.925781 10.925781-10.925781h474.148438c6.035156 0 10.929687 4.890625 10.929687 10.925781v115.804688c-.003906 6.035156-4.894531 10.925781-10.929687 10.925781zm0 0" fill="#f4efed"/><path d="m489.074219 306.03125h-474.148438c-6.035156 0-10.925781-4.890625-10.925781-10.925781v-115.804688c0-6.03125 4.890625-10.925781 10.925781-10.925781h474.148438c6.035156 0 10.929687 4.894531 10.929687 10.925781v115.808594c-.003906 6.03125-4.894531 10.921875-10.929687 10.921875zm0 0" fill="#f4efed"/><path d="m14.925781 332.253906h20c-6.035156 0-10.925781 4.890625-10.925781 10.925782v115.804687c0 6.035156 4.890625 10.925781 10.925781 10.925781h-20c-6.035156 0-10.925781-4.890625-10.925781-10.925781v-115.804687c0-6.035157 4.890625-10.925782 10.925781-10.925782zm0 0" fill="#fff"/><path d="m14.925781 168.375h20c-6.035156 0-10.925781 4.894531-10.925781 10.925781v115.808594c0 6.03125 4.890625 10.921875 10.925781 10.921875h-20c-6.035156 0-10.925781-4.890625-10.925781-10.921875v-115.808594c0-6.03125 4.890625-10.925781 10.925781-10.925781zm0 0" fill="#fff"/><path d="m14.925781 4.5h20c-6.035156 0-10.925781 4.890625-10.925781 10.925781v115.804688c0 6.035156 4.890625 10.925781 10.925781 10.925781h-20c-6.035156 0-10.925781-4.890625-10.925781-10.925781v-115.804688c0-6.035156 4.890625-10.925781 10.925781-10.925781zm0 0" fill="#fff"/><path d="m489.074219 332.253906h-20c6.035156 0 10.925781 4.890625 10.925781 10.925782v115.804687c0 6.035156-4.890625 10.925781-10.925781 10.925781h20c6.035156 0 10.925781-4.890625 10.925781-10.925781v-115.804687c0-6.035157-4.890625-10.925782-10.925781-10.925782zm0 0" fill="#d6d1cf"/><path d="m489.074219 168.375h-20c6.035156 0 10.925781 4.894531 10.925781 10.925781v115.808594c0 6.03125-4.890625 10.921875-10.925781 10.921875h20c6.035156 0 10.925781-4.890625 10.925781-10.921875v-115.808594c0-6.03125-4.890625-10.925781-10.925781-10.925781zm0 0" fill="#d6d1cf"/><path d="m489.074219 4.5h-20c6.035156 0 10.925781 4.890625 10.925781 10.925781v115.804688c0 6.035156-4.890625 10.925781-10.925781 10.925781h20c6.035156 0 10.925781-4.890625 10.925781-10.925781v-115.804688c0-6.035156-4.890625-10.925781-10.925781-10.925781zm0 0" fill="#d6d1cf"/><path d="m429.523438 98.457031h-255.648438c-12.667969 0-22.941406-10.273437-22.941406-22.941406 0-12.671875 10.273437-22.945313 22.941406-22.945313h255.648438c12.671874 0 22.941406 10.273438 22.941406 22.945313.003906 12.667969-10.269532 22.941406-22.941406 22.941406zm0 0" fill="#7bac51"/><path d="m429.523438 260.144531h-255.648438c-12.667969 0-22.941406-10.269531-22.941406-22.941406s10.273437-22.941406 22.941406-22.941406h255.648438c12.671874 0 22.941406 10.273437 22.941406 22.941406.003906 12.671875-10.269532 22.941406-22.941406 22.941406zm0 0" fill="#7bac51"/><path d="m429.523438 421.839844h-255.648438c-12.667969 0-22.941406-10.273438-22.941406-22.945313 0-12.667969 10.273437-22.941406 22.941406-22.941406h255.648438c12.671874 0 22.941406 10.273437 22.941406 22.941406.003906 12.671875-10.269532 22.945313-22.941406 22.945313zm0 0" fill="#7bac51"/><path d="m40.050781 142.15625h423.894531v26.21875h-423.894531zm0 0" fill="#d6d1cf"/><path d="m40.050781 306.03125h423.894531v26.222656h-423.894531zm0 0" fill="#d6d1cf"/><g fill="#690589"><path d="m489.074219 146.15625h-474.148438c-8.230469 0-14.925781-6.695312-14.925781-14.925781v-115.804688c0-8.230469 6.695312-14.925781 14.925781-14.925781h474.148438c8.230469 0 14.925781 6.695312 14.925781 14.925781v115.804688c0 8.230469-6.695312 14.925781-14.925781 14.925781zm-474.148438-137.660156c-3.816406 0-6.925781 3.109375-6.925781 6.929687v115.804688c0 3.816406 3.109375 6.921875 6.925781 6.921875h474.148438c3.816406 0 6.925781-3.105469 6.925781-6.921875v-115.804688c0-3.820312-3.109375-6.925781-6.925781-6.925781h-474.148438zm0 0"/><path d="m463.949219 172.375h-423.898438c-2.207031 0-4-1.789062-4-4v-26.21875c0-2.207031 1.792969-4 4-4h423.894531c2.207032 0 4 1.792969 4 4v26.21875c.003907 2.210938-1.789062 4-3.996093 4zm-419.898438-8h415.894531v-18.21875h-415.894531zm0 0"/><path d="m489.074219 310.03125h-474.148438c-8.230469 0-14.925781-6.695312-14.925781-14.921875v-115.808594c0-8.230469 6.695312-14.925781 14.925781-14.925781h474.148438c8.230469 0 14.925781 6.695312 14.925781 14.925781v115.804688c0 8.230469-6.695312 14.925781-14.925781 14.925781zm-474.148438-137.65625c-3.816406 0-6.925781 3.105469-6.925781 6.925781v115.804688c0 3.820312 3.109375 6.925781 6.925781 6.925781h474.148438c3.816406 0 6.925781-3.105469 6.925781-6.925781v-115.804688c0-3.820312-3.109375-6.925781-6.925781-6.925781zm0 0"/><path d="m463.949219 336.253906h-423.898438c-2.207031 0-4-1.792968-4-4v-26.222656c0-2.207031 1.792969-4 4-4h423.894531c2.207032 0 4 1.792969 4 4v26.222656c.003907 2.207032-1.789062 4-3.996093 4zm-419.898438-8h415.894531v-18.222656h-415.894531zm0 0"/><path d="m489.074219 473.910156h-474.148438c-8.230469 0-14.925781-6.695312-14.925781-14.925781v-115.804687c0-8.230469 6.695312-14.921876 14.925781-14.921876h474.148438c8.230469 0 14.925781 6.695313 14.925781 14.921876v115.804687c0 8.230469-6.695312 14.925781-14.925781 14.925781zm-474.148438-137.65625c-3.816406 0-6.925781 3.105469-6.925781 6.921875v115.804688c0 3.820312 3.109375 6.925781 6.925781 6.925781h474.148438c3.816406 0 6.925781-3.105469 6.925781-6.925781v-115.804688c0-3.816406-3.109375-6.921875-6.925781-6.921875zm0 0"/><path d="m429.523438 102.453125h-255.648438c-14.855469 0-26.941406-12.085937-26.941406-26.941406s12.085937-26.945313 26.941406-26.945313h255.648438c14.855468 0 26.941406 12.085938 26.941406 26.945313s-12.085938 26.941406-26.941406 26.941406zm-255.648438-45.882813c-10.445312 0-18.941406 8.496094-18.941406 18.945313 0 10.445313 8.496094 18.941406 18.941406 18.941406h255.648438c10.445312 0 18.941406-8.5 18.941406-18.941406 0-10.445313-8.496094-18.945313-18.941406-18.945313zm0 0"/><path d="m429.523438 264.144531h-255.648438c-14.855469 0-26.941406-12.085937-26.941406-26.941406s12.085937-26.941406 26.941406-26.941406h255.648438c14.855468 0 26.941406 12.085937 26.941406 26.941406s-12.085938 26.941406-26.941406 26.941406zm-255.648438-45.882812c-10.445312 0-18.941406 8.5-18.941406 18.941406 0 10.445313 8.496094 18.941406 18.941406 18.941406h255.648438c10.445312 0 18.941406-8.496093 18.941406-18.941406 0-10.441406-8.496094-18.941406-18.941406-18.941406zm0 0"/><path d="m429.523438 425.839844h-255.648438c-14.855469 0-26.941406-12.085938-26.941406-26.945313s12.085937-26.941406 26.941406-26.941406h255.648438c14.855468 0 26.941406 12.085937 26.941406 26.941406s-12.085938 26.945313-26.941406 26.945313zm-255.648438-45.886719c-10.445312 0-18.941406 8.5-18.941406 18.941406 0 10.445313 8.496094 18.945313 18.941406 18.945313h255.648438c10.445312 0 18.941406-8.496094 18.941406-18.945313 0-10.445312-8.496094-18.941406-18.941406-18.941406zm0 0"/></g><path d="m390.746094 237.203125c0 76.628906-62.117188 138.75-138.746094 138.75s-138.746094-62.121094-138.746094-138.75 62.117188-138.746094 138.746094-138.746094 138.746094 62.117188 138.746094 138.746094zm0 0" fill="#fcc24c"/><path d="m97.417969 75.511719c0 12.671875-10.269531 22.941406-22.941407 22.941406-12.671874 0-22.941406-10.269531-22.941406-22.941406s10.269532-22.941407 22.941406-22.941407c12.671876 0 22.941407 10.269532 22.941407 22.941407zm0 0" fill="#ff4397"/><path d="m97.417969 237.203125c0 12.671875-10.269531 22.941406-22.941407 22.941406-12.671874 0-22.941406-10.269531-22.941406-22.941406 0-12.667969 10.269532-22.941406 22.941406-22.941406 12.671876 0 22.941407 10.273437 22.941407 22.941406zm0 0" fill="#ff4397"/><path d="m97.417969 398.894531c0 12.671875-10.269531 22.945313-22.941407 22.945313-12.671874 0-22.941406-10.273438-22.941406-22.945313 0-12.667969 10.269532-22.941406 22.941406-22.941406 12.671876 0 22.941407 10.273437 22.941407 22.941406zm0 0" fill="#ff4397"/><path d="m20 62.375c-2.207031 0-4-1.792969-4-4v-24c0-2.210938 1.792969-4 4-4s4 1.789062 4 4v24c0 2.207031-1.792969 4-4 4zm0 0" fill="#690589"/><path d="m252 98.453125c-3.367188 0-6.695312.164063-10 .398437 71.957031 5.128907 128.746094 65.089844 128.746094 138.351563s-56.789063 133.222656-128.746094 138.351563c3.304688.238281 6.632812.398437 10 .398437 76.628906 0 138.746094-62.117187 138.746094-138.746094 0-76.628906-62.117188-138.753906-138.746094-138.753906zm0 0" fill="#dea42e"/><path d="m252 375.953125c3.367188 0 6.695312-.164063 10-.398437-71.957031-5.128907-128.746094-65.089844-128.746094-138.351563s56.789063-133.21875 128.746094-138.347656c-3.304688-.238281-6.632812-.398438-10-.398438-76.628906 0-138.746094 62.117188-138.746094 138.746094s62.117188 138.75 138.746094 138.75zm0 0" fill="#fce06a"/><path d="m74.476562 102.453125c-14.859374 0-26.945312-12.085937-26.945312-26.941406s12.085938-26.945313 26.945312-26.945313c14.855469 0 26.941407 12.085938 26.941407 26.945313s-12.085938 26.941406-26.941407 26.941406zm0-45.882813c-10.445312 0-18.945312 8.496094-18.945312 18.945313 0 10.445313 8.5 18.941406 18.945312 18.941406 10.445313 0 18.941407-8.5 18.941407-18.941406 0-10.445313-8.496094-18.945313-18.941407-18.945313zm0 0" fill="#690589"/><path d="m74.476562 264.144531c-14.859374 0-26.945312-12.085937-26.945312-26.941406s12.085938-26.941406 26.945312-26.941406c14.855469 0 26.941407 12.085937 26.941407 26.941406s-12.085938 26.941406-26.941407 26.941406zm0-45.882812c-10.445312 0-18.945312 8.5-18.945312 18.941406 0 10.445313 8.5 18.941406 18.945312 18.941406 10.445313 0 18.941407-8.496093 18.941407-18.941406 0-10.441406-8.496094-18.941406-18.941407-18.941406zm0 0" fill="#690589"/><path d="m74.476562 425.839844c-14.859374 0-26.945312-12.085938-26.945312-26.945313s12.085938-26.941406 26.945312-26.941406c14.855469 0 26.941407 12.085937 26.941407 26.941406s-12.085938 26.945313-26.941407 26.945313zm0-45.886719c-10.445312 0-18.945312 8.5-18.945312 18.941406 0 10.445313 8.5 18.945313 18.945312 18.945313 10.445313 0 18.941407-8.496094 18.941407-18.945313 0-10.445312-8.496094-18.941406-18.941407-18.941406zm0 0" fill="#690589"/><path d="m252 379.953125c-78.710938 0-142.746094-64.039063-142.746094-142.75s64.035156-142.75 142.746094-142.75 142.746094 64.039063 142.746094 142.75-64.035156 142.75-142.746094 142.75zm0-277.5c-74.300781 0-134.746094 60.449219-134.746094 134.75 0 74.304687 60.445313 134.75 134.746094 134.75s134.746094-60.449219 134.746094-134.75-60.445313-134.75-134.746094-134.75zm0 0" fill="#690589"/><path d="m358.808594 255.09375v-35.78125h-19.796875c-2.300781-11.246094-6.742188-21.707031-12.855469-30.964844l14.019531-14.019531-25.300781-25.296875-14.015625 14.019531c-9.261719-6.113281-19.722656-10.554687-30.96875-12.851562v-19.800781h-35.777344v19.800781c-11.246093 2.296875-21.710937 6.738281-30.96875 12.851562l-14.019531-14.019531-25.300781 25.296875 14.023437 14.019531c-6.117187 9.261719-10.554687 19.71875-12.855468 30.964844h-19.796876v35.78125h19.796876c2.300781 11.246094 6.742187 21.707031 12.855468 30.964844l-14.023437 14.019531 25.300781 25.300781 14.019531-14.019531c9.257813 6.113281 19.722657 10.550781 30.96875 12.851563v19.800781h35.777344v-19.800781c11.246094-2.300782 21.710937-6.738282 30.96875-12.851563l14.019531 14.019531 25.300782-25.300781-14.019532-14.019531c6.113282-9.257813 10.550782-19.71875 12.851563-30.964844zm-106.808594 40.039062c-31.992188 0-57.929688-25.933593-57.929688-57.929687 0-31.992187 25.9375-57.929687 57.929688-57.929687s57.929688 25.9375 57.929688 57.929687c0 31.996094-25.9375 57.929687-57.929688 57.929687zm0 0" fill="#f4efed"/><path d="m269.886719 348.015625h-35.777344c-2.210937 0-4-1.792969-4-4v-16.59375c-9.320313-2.253906-18.175781-5.933594-26.40625-10.964844l-11.75 11.75c-1.5 1.5-4.15625 1.503907-5.65625 0l-25.300781-25.300781c-.75-.75-1.171875-1.765625-1.171875-2.828125 0-1.058594.421875-2.074219 1.171875-2.824219l11.75-11.753906c-5.03125-8.230469-8.707032-17.089844-10.960938-26.40625h-16.59375c-2.207031 0-4-1.792969-4-4v-35.78125c0-2.207031 1.792969-4 4-4h16.59375c2.253906-9.316406 5.929688-18.175781 10.960938-26.40625l-11.75-11.75c-.75-.75-1.171875-1.769531-1.171875-2.828125s.421875-2.078125 1.171875-2.828125l25.300781-25.300781c.75-.75 1.765625-1.171875 2.828125-1.171875 1.058594 0 2.078125.421875 2.828125 1.171875l11.75 11.753906c8.230469-5.035156 17.085937-8.710937 26.40625-10.964844v-16.59375c0-2.207031 1.789063-4 4-4h35.777344c2.210937 0 4 1.792969 4 4v16.59375c9.320312 2.253907 18.179687 5.933594 26.40625 10.964844l11.753906-11.753906c1.5625-1.5625 4.09375-1.5625 5.65625 0l25.300781 25.300781c.75.75 1.171875 1.769531 1.171875 2.828125s-.421875 2.078125-1.171875 2.828125l-11.753906 11.75c5.035156 8.230469 8.710938 17.089844 10.960938 26.40625h16.59375c2.210937 0 4 1.792969 4 4v35.78125c0 2.207031-1.789063 4-4 4h-16.59375c-2.25 9.316406-5.929688 18.175781-10.960938 26.40625l11.753906 11.753906c.75.75 1.171875 1.765625 1.171875 2.824219 0 1.0625-.421875 2.078125-1.171875 2.828125l-25.300781 25.300781c-.75.75-1.769531 1.171875-2.828125 1.171875-1.0625 0-2.078125-.421875-2.828125-1.171875l-11.75-11.75c-8.234375 5.035157-17.089844 8.710938-26.410156 10.964844v16.59375c0 2.207031-1.789063 4-4 4zm-31.777344-8h27.78125v-15.800781c0-1.902344 1.335937-3.539063 3.199219-3.917969 10.550781-2.160156 20.5-6.289063 29.566406-12.273437 1.582031-1.046876 3.6875-.832032 5.03125.511718l11.191406 11.1875 19.644532-19.640625-11.195313-11.191406c-1.34375-1.34375-1.554687-3.445313-.507813-5.03125 5.984376-9.066406 10.113282-19.011719 12.273438-29.566406.378906-1.859375 2.019531-3.195313 3.917969-3.195313h15.796875v-27.78125h-15.796875c-1.898438 0-3.539063-1.335937-3.917969-3.199218-2.160156-10.550782-6.289062-20.5-12.273438-29.5625-1.046874-1.585938-.835937-3.691407.507813-5.03125l11.195313-11.195313-19.644532-19.640625-11.191406 11.191406c-1.34375 1.34375-3.449219 1.558594-5.035156.507813-9.058594-5.984375-19.007813-10.113281-29.5625-12.269531-1.863282-.382813-3.199219-2.019532-3.199219-3.917969v-15.800781h-27.78125v15.800781c0 1.898437-1.335937 3.535156-3.199219 3.917969-10.550781 2.160156-20.5 6.285156-29.5625 12.269531-1.585937 1.046875-3.695312.835937-5.035156-.507813l-11.1875-11.191406-19.644531 19.640625 11.191406 11.195313c1.34375 1.339843 1.554687 3.445312.511719 5.03125-5.984375 9.0625-10.117188 19.011718-12.277344 29.5625-.378906 1.863281-2.015625 3.199218-3.917969 3.199218h-15.796875v27.78125h15.796875c1.902344 0 3.539063 1.335938 3.917969 3.195313 2.160156 10.554687 6.292969 20.5 12.277344 29.566406 1.042968 1.585937.832031 3.6875-.511719 5.03125l-11.191406 11.191406 19.644531 19.640625 11.1875-11.1875c1.34375-1.34375 3.449219-1.558594 5.035156-.511718 9.0625 5.984374 19.011719 10.113281 29.5625 12.273437 1.863282.378906 3.199219 2.015625 3.199219 3.917969zm13.890625-40.882813c-34.148438 0-61.929688-27.78125-61.929688-61.929687s27.78125-61.929687 61.929688-61.929687 61.929688 27.78125 61.929688 61.929687-27.78125 61.929687-61.929688 61.929687zm0-115.859374c-29.734375 0-53.929688 24.191406-53.929688 53.929687s24.195313 53.929687 53.929688 53.929687 53.929688-24.191406 53.929688-53.929687-24.195313-53.929687-53.929688-53.929687zm0 0" fill="#690589"/></svg>